<?xml version="1.0" encoding="UTF-8"?>
<svg width="247px" height="31px" viewBox="0 0 247 31" version="1.1" xmlns="http://www.w3.org/2000/svg" xmlns:xlink="http://www.w3.org/1999/xlink">
    <!-- Generator: Sketch 51.3 (57544) - http://www.bohemiancoding.com/sketch -->
    <title>logo</title>
    <desc>Created with Sketch.</desc>
    <defs></defs>
    <g id="Page-1" stroke="none" stroke-width="1" fill="none" fill-rule="evenodd">
        <g id="logo">
            <path d="M 151.75 0.419 L 143.806 30.476 L 142.402 30.476 L 136.554 7.86 L 136.47 6.686 L 136.345 7.86 L 130.539 30.476 L 129.134 30.476 L 121.149 0.419 L 123.852 0.419 L 129.742 23.266 L 129.826 24.377 L 129.91 23.266 L 135.695 0.419 L 137.204 0.419 L 142.989 23.266 L 143.073 24.377 L 143.177 23.266 L 149.046 0.419 L 151.75 0.419 Z M 213.519 14.672 L 213.519 30.476 L 212.66 30.476 L 211.088 28.066 Q 210.103 29.365 208.698 30.13 A 6.341 6.341 0 0 1 205.895 30.888 A 7.531 7.531 0 0 1 205.575 30.895 L 204.003 30.895 A 7.271 7.271 0 0 1 201.121 30.319 A 7.406 7.406 0 0 1 198.763 28.736 A 7.438 7.438 0 0 1 197.181 26.389 A 7.196 7.196 0 0 1 196.604 23.517 L 196.604 7.378 A 7.196 7.196 0 0 1 197.181 4.507 A 7.438 7.438 0 0 1 198.763 2.159 A 7.406 7.406 0 0 1 201.121 0.577 A 7.271 7.271 0 0 1 204.003 0 L 206.141 0 A 7.196 7.196 0 0 1 209.013 0.577 A 7.438 7.438 0 0 1 211.36 2.159 A 7.438 7.438 0 0 1 212.943 4.507 A 7.196 7.196 0 0 1 213.519 7.378 L 213.519 8.594 L 210.815 9.013 L 210.815 7.378 A 4.723 4.723 0 0 0 210.547 5.777 A 4.472 4.472 0 0 0 210.438 5.502 A 4.863 4.863 0 0 0 209.411 3.983 A 4.863 4.863 0 0 0 207.891 2.956 A 4.639 4.639 0 0 0 206.109 2.579 A 5.314 5.314 0 0 0 206.015 2.578 L 204.129 2.578 A 4.723 4.723 0 0 0 202.528 2.847 A 4.472 4.472 0 0 0 202.253 2.956 A 4.992 4.992 0 0 0 200.723 3.983 A 4.776 4.776 0 0 0 199.686 5.502 A 4.639 4.639 0 0 0 199.309 7.284 A 5.314 5.314 0 0 0 199.308 7.378 L 199.308 23.517 A 4.723 4.723 0 0 0 199.577 25.118 A 4.472 4.472 0 0 0 199.686 25.393 A 4.901 4.901 0 0 0 200.723 26.923 A 4.901 4.901 0 0 0 202.253 27.961 A 4.639 4.639 0 0 0 204.035 28.337 A 5.314 5.314 0 0 0 204.129 28.338 L 206.015 28.338 A 4.723 4.723 0 0 0 207.616 28.069 A 4.472 4.472 0 0 0 207.891 27.961 A 4.776 4.776 0 0 0 209.411 26.923 A 4.992 4.992 0 0 0 210.438 25.393 A 4.639 4.639 0 0 0 210.814 23.611 A 5.314 5.314 0 0 0 210.815 23.517 L 210.815 17.25 L 206.015 17.25 L 206.015 14.672 L 213.519 14.672 Z M 118.57 30.476 L 101.656 30.476 L 101.656 0.419 L 118.57 0.419 L 118.57 2.997 L 104.36 2.997 L 104.36 14.169 L 115.867 14.169 L 115.867 16.747 L 104.36 16.747 L 104.36 27.898 L 118.57 27.898 L 118.57 30.476 Z M 238.65 30.895 L 236.512 30.895 A 7.271 7.271 0 0 1 233.63 30.319 A 7.406 7.406 0 0 1 231.272 28.736 A 7.438 7.438 0 0 1 229.69 26.389 A 7.196 7.196 0 0 1 229.113 23.517 L 229.113 7.378 A 7.196 7.196 0 0 1 229.69 4.507 A 7.438 7.438 0 0 1 231.272 2.159 A 7.406 7.406 0 0 1 233.63 0.577 A 7.271 7.271 0 0 1 236.512 0 L 238.65 0 A 7.196 7.196 0 0 1 241.522 0.577 A 7.438 7.438 0 0 1 243.869 2.159 A 7.438 7.438 0 0 1 245.452 4.507 A 7.196 7.196 0 0 1 246.028 7.378 L 246.028 8.594 L 243.324 9.013 L 243.324 7.378 A 4.723 4.723 0 0 0 243.056 5.777 A 4.472 4.472 0 0 0 242.947 5.502 A 4.863 4.863 0 0 0 241.92 3.983 A 4.863 4.863 0 0 0 240.4 2.956 A 4.639 4.639 0 0 0 238.618 2.579 A 5.314 5.314 0 0 0 238.524 2.578 L 236.638 2.578 A 4.723 4.723 0 0 0 235.037 2.847 A 4.472 4.472 0 0 0 234.762 2.956 A 4.992 4.992 0 0 0 233.232 3.983 A 4.776 4.776 0 0 0 232.194 5.502 A 4.639 4.639 0 0 0 231.818 7.284 A 5.314 5.314 0 0 0 231.817 7.378 L 231.817 23.517 A 4.723 4.723 0 0 0 232.086 25.118 A 4.472 4.472 0 0 0 232.194 25.393 A 4.901 4.901 0 0 0 233.232 26.923 A 4.901 4.901 0 0 0 234.762 27.961 A 4.639 4.639 0 0 0 236.544 28.337 A 5.314 5.314 0 0 0 236.638 28.338 L 238.524 28.338 A 4.723 4.723 0 0 0 240.125 28.069 A 4.472 4.472 0 0 0 240.4 27.961 A 4.776 4.776 0 0 0 241.92 26.923 A 4.992 4.992 0 0 0 242.947 25.393 A 4.639 4.639 0 0 0 243.323 23.611 A 5.314 5.314 0 0 0 243.324 23.517 L 243.324 21.882 L 246.028 22.323 L 246.028 23.517 A 7.196 7.196 0 0 1 245.452 26.389 A 7.438 7.438 0 0 1 243.869 28.736 A 7.438 7.438 0 0 1 241.522 30.319 A 7.196 7.196 0 0 1 238.65 30.895 Z M 71.956 0.419 L 78.6 23.874 L 78.684 24.984 L 78.768 23.874 L 85.433 0.419 L 88.22 0.419 L 79.375 30.476 L 77.95 30.476 L 69.147 0.419 L 71.956 0.419 Z M 67.009 30.476 L 63.886 30.476 L 55.733 17.648 L 52.023 17.648 L 52.023 30.476 L 49.319 30.476 L 49.319 0.419 L 58.856 0.419 A 7.196 7.196 0 0 1 61.727 0.996 A 7.438 7.438 0 0 1 64.075 2.578 A 7.406 7.406 0 0 1 65.657 4.936 A 7.271 7.271 0 0 1 66.233 7.818 L 66.233 10.25 A 7.271 7.271 0 0 1 65.657 13.132 A 7.406 7.406 0 0 1 64.075 15.49 A 7.438 7.438 0 0 1 61.727 17.072 A 7.196 7.196 0 0 1 58.856 17.648 L 67.009 30.476 Z M 16.915 2.997 L 2.704 2.997 L 2.704 14.169 L 14.211 14.169 L 14.211 16.747 L 2.704 16.747 L 2.704 30.476 L 0 30.476 L 0 0.419 L 16.915 0.419 L 16.915 2.997 Z M 33.536 30.476 L 31.545 23.475 L 22.029 23.475 L 20.059 30.476 L 17.25 30.476 L 26.053 0.419 L 27.479 0.419 L 36.324 30.476 L 33.536 30.476 Z M 169.818 30.476 L 155.607 30.476 L 155.607 0.419 L 158.311 0.419 L 158.311 27.898 L 169.818 27.898 L 169.818 30.476 Z M 183.211 30.895 L 181.073 30.895 A 7.271 7.271 0 0 1 178.191 30.319 A 7.406 7.406 0 0 1 175.833 28.736 A 7.438 7.438 0 0 1 174.251 26.389 A 7.196 7.196 0 0 1 173.674 23.517 L 173.674 7.378 A 7.196 7.196 0 0 1 174.251 4.507 A 7.438 7.438 0 0 1 175.833 2.159 A 7.406 7.406 0 0 1 178.191 0.577 A 7.271 7.271 0 0 1 181.073 0 L 183.211 0 A 7.196 7.196 0 0 1 186.083 0.577 A 7.438 7.438 0 0 1 188.43 2.159 A 7.438 7.438 0 0 1 190.013 4.507 A 7.196 7.196 0 0 1 190.589 7.378 L 190.589 23.517 A 7.196 7.196 0 0 1 190.013 26.389 A 7.438 7.438 0 0 1 188.43 28.736 A 7.438 7.438 0 0 1 186.083 30.319 A 7.196 7.196 0 0 1 183.211 30.895 Z M 187.885 23.517 L 187.885 7.378 A 4.723 4.723 0 0 0 187.616 5.777 A 4.472 4.472 0 0 0 187.508 5.502 A 4.863 4.863 0 0 0 186.481 3.983 A 4.863 4.863 0 0 0 184.961 2.956 A 4.639 4.639 0 0 0 183.179 2.579 A 5.314 5.314 0 0 0 183.085 2.578 L 181.199 2.578 A 4.723 4.723 0 0 0 179.598 2.847 A 4.472 4.472 0 0 0 179.323 2.956 A 4.992 4.992 0 0 0 177.793 3.983 A 4.776 4.776 0 0 0 176.755 5.502 A 4.639 4.639 0 0 0 176.379 7.284 A 5.314 5.314 0 0 0 176.378 7.378 L 176.378 23.517 A 4.723 4.723 0 0 0 176.647 25.118 A 4.472 4.472 0 0 0 176.755 25.393 A 4.901 4.901 0 0 0 177.793 26.923 A 4.901 4.901 0 0 0 179.323 27.961 A 4.639 4.639 0 0 0 181.105 28.337 A 5.314 5.314 0 0 0 181.199 28.338 L 183.085 28.338 A 4.723 4.723 0 0 0 184.686 28.069 A 4.472 4.472 0 0 0 184.961 27.961 A 4.776 4.776 0 0 0 186.481 26.923 A 4.992 4.992 0 0 0 187.508 25.393 A 4.639 4.639 0 0 0 187.884 23.611 A 5.314 5.314 0 0 0 187.885 23.517 Z M 42.884 30.476 L 40.18 30.476 L 40.18 0.419 L 42.884 0.419 L 42.884 30.476 Z M 94.781 30.476 L 92.077 30.476 L 92.077 0.419 L 94.781 0.419 L 94.781 30.476 Z M 222.679 30.476 L 219.975 30.476 L 219.975 0.419 L 222.679 0.419 L 222.679 30.476 Z M 63.53 10.25 L 63.53 7.818 A 4.723 4.723 0 0 0 63.261 6.217 A 4.472 4.472 0 0 0 63.152 5.942 A 4.992 4.992 0 0 0 62.125 4.412 A 4.776 4.776 0 0 0 60.606 3.375 A 4.639 4.639 0 0 0 58.824 2.998 A 5.314 5.314 0 0 0 58.73 2.997 L 52.023 2.997 L 52.023 15.07 L 58.73 15.07 A 4.723 4.723 0 0 0 60.331 14.802 A 4.472 4.472 0 0 0 60.606 14.693 A 4.776 4.776 0 0 0 62.125 13.656 A 4.992 4.992 0 0 0 63.152 12.126 A 4.639 4.639 0 0 0 63.529 10.344 A 5.314 5.314 0 0 0 63.53 10.25 Z M 26.703 7.043 L 22.763 20.897 L 30.832 20.897 L 26.871 7.043 L 26.787 5.932 L 26.703 7.043 Z" id="FAIRVIEWLOGIC" fill="#1C3ED3"></path>
        </g>
    </g>
</svg>